<?xml version="1.0" encoding="utf-8"?>
<svg viewBox="141.566 160.639 360.442 337.344" xmlns="http://www.w3.org/2000/svg">
  <defs>
    <linearGradient id="gradient-3" gradientUnits="userSpaceOnUse" x1="334" y1="-19" x2="334" y2="329" gradientTransform="matrix(0.630659, 0.776061, 0.660689, -0.538358, 109.011391, 372.000061)">
      <stop offset="0" style="stop-color: rgba(255, 234, 0, 0);"/>
      <stop offset="1" style="stop-color: rgb(255, 170, 0);"/>
    </linearGradient>
  </defs>
  <path d="M 165.335 336 C 165.368 256.146 208.012 182.228 277.168 142.3 C 351.676 99.283 435.647 104.665 500.833 142.3 C 566.018 179.935 612.623 249.965 612.665 336 C 612.632 415.854 569.988 489.772 500.833 529.7 C 426.324 572.717 342.353 567.335 277.168 529.7 C 211.982 492.065 165.377 422.035 165.335 336 Z M 277.668 528.834 C 342.661 566.358 426.064 571.712 500.333 528.834 C 569.272 489.031 611.699 415.604 611.665 336 C 611.707 250.242 565.326 180.691 500.333 143.166 C 435.339 105.642 351.936 100.288 277.668 143.166 C 208.728 182.969 166.302 256.396 166.335 336 C 166.293 421.758 212.674 491.309 277.668 528.834 Z M 472.845 190.776 C 524.682 220.704 556.657 276.144 556.69 336 C 556.648 400.49 521.705 453.015 472.845 481.224 C 423.985 509.433 361.005 513.469 305.155 481.224 C 253.318 451.296 221.343 395.856 221.31 336 C 221.352 271.51 256.295 218.985 305.155 190.776 C 354.015 162.567 416.995 158.531 472.845 190.776 Z M 305.655 191.642 C 256.987 219.741 222.268 271.787 222.31 336 C 222.277 395.606 254.034 450.555 305.655 480.358 C 361.265 512.464 423.677 508.456 472.345 480.358 C 521.013 452.259 555.732 400.213 555.69 336 C 555.723 276.394 523.966 221.445 472.345 191.642 C 416.735 159.536 354.323 163.544 305.655 191.642 Z" style="fill: none;" transform="matrix(-0.769326, 0.638856, -0.638856, -0.769326, 758.89978, 261.99884)"/>
  <path d="M 498.492 -2.508 L 498.492 254.516 L 239.46 254.516 L 239.46 -2.508 Z M 240.46 253.516 L 497.492 253.516 L 497.492 -1.508 L 240.46 -1.508 Z" style="fill: none;"/>
  <path style="fill: url(#gradient-3);" d="M 495.591 341.931 C 495.591 207.986 350.591 124.27 234.591 191.242 C 122.309 256.069 117.819 416.514 226.3 487.518 L 250.151 451.079 C 216.609 428.346 194.567 389.923 194.567 346.352 C 194.567 276.531 251.168 219.93 320.989 219.93 C 389.33 219.93 445.006 274.157 447.335 341.931 L 495.591 341.931 Z" transform="matrix(-1, 0, 0, -1, 643.18103, 655.189209)"/>
</svg>